# xmcd
#
# Track frame offsets:
#	150
#	17707
#	29684
#	44503
#	57576
#	71922
#	87460
#	100859
#	116710
#	135749
#	148673
#	164191
#	180684
#
# Disc length: 2571 seconds
#
# Revision: 0
# Processed by: cddbd v1.5.1PL0 Copyright (c) Steve Scherf et al.
# Submitted via: dBpowerAMP V4.0
#
DISCID=cd0a090d
DTITLE=Jimmy Buffett  - Grapefruit-Juicy Fruit 
DYEAR=1900
DGENRE=country
TTITLE0=Jimmy Buffett -Pirate Looks at Forty  
TTITLE1=Jimmy Buffett -Boat Drinks  
TTITLE2=Jimmy Buffett -Changes in Latitudes - Changes in Attitudes
TTITLE3=Jimmy Buffett -Cheeseburger In Paradise
TTITLE4=Jimmy Buffett - Come Monday
TTITLE5=Jimmy Buffett -Fins   
TTITLE6=Jimmy Buffett - Grapefruit-Juicy Fruit 
TTITLE7=Jimmy Buffett -He Went to Paris 
TTITLE8=Jimmy Buffett -Margaritaville 
TTITLE9=Jimmy Buffett - Pencil Thin Mustache 
TTITLE10=Jimmy Buffett - Son of a Son of a Sailor
TTITLE11=Jimmy Buffett - Volcano  
TTITLE12=Jimmy Buffett -Why Don't We Get Drunk  
EXTD=Jimmy Buffett - Grapefruit-Juicy Fruit \nJimmy Buffett -Pirate Looks at Forty  \nJimmy Buffett -Boat Drinks  \nJimmy Buffett -Changes in Latitudes - Changes in Attitudes\nJimmy Buffett -Cheeseburger In Paradise\nJimmy Buffett - Come Monday\nJimmy B
EXTD=uffett -Fins   \nJimmy Buffett - Grapefruit-Juicy Fruit \nJimmy Buffett -He Went to Paris \nJimmy Buffett -Margaritaville \nJimmy Buffett - Pencil Thin Mustache \nJimmy Buffett - Son of a Son of a Sailor\nJimmy Buffett - Volcano  \nJimmy Buffett -W
EXTD=hy Don't We Get Drunk  \n\n\n\n
EXTT0=
EXTT1=
EXTT2=
EXTT3=
EXTT4=
EXTT5=
EXTT6=
EXTT7=
EXTT8=
EXTT9=
EXTT10=
EXTT11=
EXTT12=
PLAYORDER=
